<svg width="39" height="39" viewBox="0 0 39 39" fill="none" xmlns="http://www.w3.org/2000/svg">
<path fill-rule="evenodd" clip-rule="evenodd" d="M19.5 30.5C25.5751 30.5 30.5 25.5751 30.5 19.5C30.5 13.4249 25.5751 8.5 19.5 8.5C13.4249 8.5 8.5 13.4249 8.5 19.5C8.5 25.5751 13.4249 30.5 19.5 30.5ZM19.5 31C25.8513 31 31 25.8513 31 19.5C31 13.1487 25.8513 8 19.5 8C13.1487 8 8 13.1487 8 19.5C8 25.8513 13.1487 31 19.5 31Z" fill="#C4C4C4"/>
<path d="M19.5 39C8.74636 39 0 30.2495 0 19.4973C0 8.74516 8.74636 0 19.5 0C30.2536 0 39 8.74516 39 19.4973C39 30.2495 30.2536 39 19.5 39ZM19.5 1.6056C9.63492 1.6056 1.60582 9.63359 1.60582 19.4973C1.60582 29.3611 9.63492 37.389 19.5 37.389C29.3651 37.389 37.3942 29.3611 37.3942 19.4973C37.3942 9.63359 29.3704 1.6056 19.5 1.6056Z" fill="#C4C4C4"/>
<path d="M24.5738 29C24.3668 29 24.1598 28.9484 23.9666 28.8453L20.489 26.9712C19.845 26.6231 19.0354 26.6145 18.3822 26.954L14.8724 28.7722C14.4952 28.9699 14.0444 28.9613 13.6718 28.7593C13.2992 28.553 13.0738 28.1876 13.0738 27.7836L13.0692 24.0312C13.0692 23.3349 12.669 22.6772 12.0296 22.3205L8.58887 20.3906C8.21627 20.1799 7.99547 19.8146 8.00007 19.4105C8.00467 19.0065 8.23007 18.6412 8.60727 18.4391L12.0802 16.5608C12.7242 16.2126 13.1336 15.5636 13.1474 14.863L13.2164 11.1149C13.2256 10.7108 13.4556 10.3498 13.8328 10.1478C14.21 9.95004 14.6608 9.95004 15.0334 10.1521L18.511 12.0261C19.155 12.3743 19.9646 12.3829 20.6178 12.0433L24.1276 10.2251C24.5094 10.0274 24.9556 10.036 25.3282 10.238C25.7008 10.4443 25.9262 10.8097 25.9262 11.2137L25.9308 14.9661C25.9308 15.6624 26.331 16.3201 26.9704 16.6768L30.4111 18.6068C30.7837 18.8174 31.0045 19.1827 30.9999 19.5868C30.9953 19.9908 30.7699 20.3562 30.3927 20.5582L26.9198 22.4365C26.2758 22.7847 25.8664 23.4337 25.8526 24.1344L25.7836 27.8825C25.7744 28.2865 25.5444 28.6475 25.1718 28.8496C24.9832 28.9527 24.7808 29 24.5738 29ZM19.4218 25.4195C20.029 25.4195 20.6408 25.5657 21.179 25.858L24.4082 27.5988L24.4726 24.1172C24.4956 22.9695 25.1672 21.9035 26.2298 21.3276L29.4589 19.5825L26.262 17.7901C25.2086 17.2012 24.5554 16.1224 24.5554 14.9747L24.5508 11.4888L21.2894 13.178C20.2176 13.7325 18.8882 13.7239 17.8256 13.1523L14.5964 11.4115L14.532 14.8931C14.509 16.0407 13.8374 17.1067 12.7748 17.6826L9.54566 19.4277L12.7426 21.2201C13.796 21.809 14.4492 22.8921 14.4492 24.0355L14.4538 27.5214L17.7152 25.8322C18.2442 25.5571 18.833 25.4195 19.4218 25.4195Z" fill="#C4C4C4"/>
</svg>
